<svg xmlns="http://www.w3.org/2000/svg" xmlns:xlink="http://www.w3.org/1999/xlink" version="1.1" width="256" height="256" viewBox="0 0 256 256" xml:space="preserve">

<defs>
</defs>
<g style="stroke: none; stroke-width: 0; stroke-dasharray: none; stroke-linecap: butt; stroke-linejoin: miter; stroke-miterlimit: 10; fill: none; fill-rule: nonzero; opacity: 1;" transform="translate(1.4065934065934016 1.4065934065934016) scale(2.81 2.81)" >
	<path d="M 43.998 18.402 c -21.434 0 -38.81 17.376 -38.81 38.81 h 26.104 c 0 -5.913 6.793 -12.706 12.706 -12.706 s 12.706 6.793 12.706 12.706 h 26.104 C 82.808 35.778 65.432 18.402 43.998 18.402 z" style="stroke: none; stroke-width: 1; stroke-dasharray: none; stroke-linecap: butt; stroke-linejoin: miter; stroke-miterlimit: 10; fill: rgb(242,68,68); fill-rule: nonzero; opacity: 1;" transform=" matrix(1 0 0 1 0 0) " stroke-linecap="round" />
	<path d="M 43.998 27.77 c -16.26 0 -29.442 13.182 -29.442 29.442 h 18.736 c 0 -5.913 4.793 -10.706 10.706 -10.706 s 10.706 4.793 10.706 10.706 H 73.44 C 73.44 40.952 60.259 27.77 43.998 27.77 z" style="stroke: none; stroke-width: 1; stroke-dasharray: none; stroke-linecap: butt; stroke-linejoin: miter; stroke-miterlimit: 10; fill: rgb(255,190,0); fill-rule: nonzero; opacity: 1;" transform=" matrix(1 0 0 1 0 0) " stroke-linecap="round" />
	<path d="M 43.998 37.138 c -11.087 0 -20.074 8.988 -20.074 20.074 h 9.368 c 0 -5.913 4.793 -10.706 10.706 -10.706 s 10.706 4.793 10.706 10.706 h 9.368 C 64.072 46.126 55.085 37.138 43.998 37.138 z" style="stroke: none; stroke-width: 1; stroke-dasharray: none; stroke-linecap: butt; stroke-linejoin: miter; stroke-miterlimit: 10; fill: rgb(123,216,247); fill-rule: nonzero; opacity: 1;" transform=" matrix(1 0 0 1 0 0) " stroke-linecap="round" />
	<path d="M 52.092 58.956 c -0.016 -0.241 -0.027 -0.484 -0.027 -0.73 c 0 -5.985 4.852 -10.838 10.838 -10.838 c 4.33 0 8.066 2.54 9.801 6.211 c 1.307 -0.928 2.901 -1.479 4.626 -1.479 c 3.992 0 7.292 2.924 7.899 6.745 C 87.977 59.617 90 62.126 90 65.114 c 0 3.581 -2.903 6.484 -6.484 6.484 H 54.115 c -3.581 0 -6.484 -2.903 -6.484 -6.484 C 47.631 62.24 49.502 59.806 52.092 58.956 z" style="stroke: none; stroke-width: 1; stroke-dasharray: none; stroke-linecap: butt; stroke-linejoin: miter; stroke-miterlimit: 10; fill: rgb(67,144,179); fill-rule: nonzero; opacity: 1;" transform=" matrix(1 0 0 1 0 0) " stroke-linecap="round" />
	<path d="M 3.736 56.194 c -0.013 -0.202 -0.023 -0.406 -0.023 -0.611 c 0 -5.013 4.064 -9.077 9.077 -9.077 c 3.627 0 6.755 2.128 8.209 5.202 c 1.095 -0.777 2.43 -1.239 3.875 -1.239 c 3.344 0 6.108 2.449 6.616 5.65 c 2.302 0.63 3.996 2.731 3.996 5.233 c 0 2.999 -2.432 5.431 -5.431 5.431 H 5.431 C 2.432 66.783 0 64.352 0 61.352 C 0 58.945 1.568 56.907 3.736 56.194 z" style="stroke: none; stroke-width: 1; stroke-dasharray: none; stroke-linecap: butt; stroke-linejoin: miter; stroke-miterlimit: 10; fill: rgb(67,144,179); fill-rule: nonzero; opacity: 1;" transform=" matrix(1 0 0 1 0 0) " stroke-linecap="round" />
</g>
</svg>